<svg aria-roledescription="er" role="graphics-document document" viewBox="0 0 928.3021240234375 474" style="max-width: 928.3021240234375px;" xmlns:xlink="http://www.w3.org/1999/xlink" xmlns="http://www.w3.org/2000/svg" width="100%" id="mermaid-1718117311743"><style>#mermaid-1718117311743{font-family:"trebuchet ms",verdana,arial,sans-serif;font-size:16px;fill:#333;}#mermaid-1718117311743 .error-icon{fill:#552222;}#mermaid-1718117311743 .error-text{fill:#552222;stroke:#552222;}#mermaid-1718117311743 .edge-thickness-normal{stroke-width:2px;}#mermaid-1718117311743 .edge-thickness-thick{stroke-width:3.5px;}#mermaid-1718117311743 .edge-pattern-solid{stroke-dasharray:0;}#mermaid-1718117311743 .edge-pattern-dashed{stroke-dasharray:3;}#mermaid-1718117311743 .edge-pattern-dotted{stroke-dasharray:2;}#mermaid-1718117311743 .marker{fill:#333333;stroke:#333333;}#mermaid-1718117311743 .marker.cross{stroke:#333333;}#mermaid-1718117311743 svg{font-family:"trebuchet ms",verdana,arial,sans-serif;font-size:16px;}#mermaid-1718117311743 .entityBox{fill:#ECECFF;stroke:#9370DB;}#mermaid-1718117311743 .attributeBoxOdd{fill:#ffffff;stroke:#9370DB;}#mermaid-1718117311743 .attributeBoxEven{fill:#f2f2f2;stroke:#9370DB;}#mermaid-1718117311743 .relationshipLabelBox{fill:hsl(80, 100%, 96.2745098039%);opacity:0.7;background-color:hsl(80, 100%, 96.2745098039%);}#mermaid-1718117311743 .relationshipLabelBox rect{opacity:0.5;}#mermaid-1718117311743 .relationshipLine{stroke:#333333;}#mermaid-1718117311743 .entityTitleText{text-anchor:middle;font-size:18px;fill:#333;}#mermaid-1718117311743 #MD_PARENT_START{fill:#f5f5f5!important;stroke:#333333!important;stroke-width:1;}#mermaid-1718117311743 #MD_PARENT_END{fill:#f5f5f5!important;stroke:#333333!important;stroke-width:1;}#mermaid-1718117311743 :root{--mermaid-font-family:"trebuchet ms",verdana,arial,sans-serif;}</style><g/><defs><marker orient="auto" markerHeight="240" markerWidth="190" refY="7" refX="0" id="MD_PARENT_START"><path d="M 18,7 L9,13 L1,7 L9,1 Z"/></marker></defs><defs><marker orient="auto" markerHeight="28" markerWidth="20" refY="7" refX="19" id="MD_PARENT_END"><path d="M 18,7 L9,13 L1,7 L9,1 Z"/></marker></defs><defs><marker orient="auto" markerHeight="18" markerWidth="18" refY="9" refX="0" id="ONLY_ONE_START"><path d="M9,0 L9,18 M15,0 L15,18" fill="none" stroke="gray"/></marker></defs><defs><marker orient="auto" markerHeight="18" markerWidth="18" refY="9" refX="18" id="ONLY_ONE_END"><path d="M3,0 L3,18 M9,0 L9,18" fill="none" stroke="gray"/></marker></defs><defs><marker orient="auto" markerHeight="18" markerWidth="30" refY="9" refX="0" id="ZERO_OR_ONE_START"><circle r="6" cy="9" cx="21" fill="white" stroke="gray"/><path d="M9,0 L9,18" fill="none" stroke="gray"/></marker></defs><defs><marker orient="auto" markerHeight="18" markerWidth="30" refY="9" refX="30" id="ZERO_OR_ONE_END"><circle r="6" cy="9" cx="9" fill="white" stroke="gray"/><path d="M21,0 L21,18" fill="none" stroke="gray"/></marker></defs><defs><marker orient="auto" markerHeight="36" markerWidth="45" refY="18" refX="18" id="ONE_OR_MORE_START"><path d="M0,18 Q 18,0 36,18 Q 18,36 0,18 M42,9 L42,27" fill="none" stroke="gray"/></marker></defs><defs><marker orient="auto" markerHeight="36" markerWidth="45" refY="18" refX="27" id="ONE_OR_MORE_END"><path d="M3,9 L3,27 M9,18 Q27,0 45,18 Q27,36 9,18" fill="none" stroke="gray"/></marker></defs><defs><marker orient="auto" markerHeight="36" markerWidth="57" refY="18" refX="18" id="ZERO_OR_MORE_START"><circle r="6" cy="18" cx="48" fill="white" stroke="gray"/><path d="M0,18 Q18,0 36,18 Q18,36 0,18" fill="none" stroke="gray"/></marker></defs><defs><marker orient="auto" markerHeight="36" markerWidth="57" refY="18" refX="39" id="ZERO_OR_MORE_END"><circle r="6" cy="18" cx="9" fill="white" stroke="gray"/><path d="M21,18 Q39,0 57,18 Q39,36 21,18" fill="none" stroke="gray"/></marker></defs><path style="stroke: gray; fill: none;" marker-start="url(#ONLY_ONE_START)" marker-end="url(#ZERO_OR_MORE_END)" d="M821.455,154L821.455,162.333C821.455,170.667,821.455,187.333,821.455,205.833C821.455,224.333,821.455,244.667,821.455,254.833L821.455,265" class="er relationshipLine"/><path style="stroke: gray; fill: none;" marker-start="url(#ONLY_ONE_START)" marker-end="url(#ZERO_OR_MORE_END)" d="M86.799,143L86.799,153.167C86.799,163.333,86.799,183.667,101.57,213.167C116.342,242.667,145.886,281.333,160.658,300.667L175.43,320" class="er relationshipLine"/><path style="stroke: gray; fill: none;" marker-start="url(#ONLY_ONE_START)" marker-end="url(#ZERO_OR_MORE_END)" d="M316.018,132L316.018,144C316.018,156,316.018,180,301.246,211.333C286.474,242.667,256.93,281.333,242.158,300.667L227.386,320" class="er relationshipLine"/><path style="stroke: gray; fill: none;" marker-start="url(#ONLY_ONE_START)" marker-end="url(#ZERO_OR_MORE_END)" d="M553.494,143L553.494,153.167C553.494,163.333,553.494,183.667,553.494,202.167C553.494,220.667,553.494,237.333,553.494,245.667L553.494,254" class="er relationshipLine"/><g transform="translate(253.5970458984375,42 )" id="entity-Banca-3b16b134-4c44-59a4-8df2-2fe32b88624b"><rect height="90" width="124.84140014648438" y="0" x="0" class="er entityBox"/><text transform="translate(62.42070007324219,12)" style="dominant-baseline: middle; text-anchor: middle; font-size: 12px;" y="0" x="0" id="text-entity-Banca-3b16b134-4c44-59a4-8df2-2fe32b88624b" class="er entityLabel">Banca</text><rect height="22" width="68.09065246582031" y="24" x="0" class="er attributeBoxOdd"/><text transform="translate(5,35)" style="dominant-baseline: middle; font-size: 10.2px;" y="0" x="0" id="text-entity-Banca-3b16b134-4c44-59a4-8df2-2fe32b88624b-attr-1-type" class="er entityLabel">id_banca</text><rect height="22" width="34.06306457519531" y="24" x="68.09065246582031" class="er attributeBoxOdd"/><text transform="translate(73.09065246582031,35)" style="dominant-baseline: middle; font-size: 10.2px;" y="0" x="0" id="text-entity-Banca-3b16b134-4c44-59a4-8df2-2fe32b88624b-attr-1-name" class="er entityLabel">TEXT</text><rect height="22" width="22.68768310546875" y="24" x="102.15371704101562" class="er attributeBoxOdd"/><text transform="translate(107.15371704101562,35)" style="dominant-baseline: middle; font-size: 10.2px;" y="0" x="0" id="text-entity-Banca-3b16b134-4c44-59a4-8df2-2fe32b88624b-attr-1-key" class="er entityLabel">PK</text><rect height="22" width="68.09065246582031" y="46" x="0" class="er attributeBoxEven"/><text transform="translate(5,57)" style="dominant-baseline: middle; font-size: 10.2px;" y="0" x="0" id="text-entity-Banca-3b16b134-4c44-59a4-8df2-2fe32b88624b-attr-2-type" class="er entityLabel">nome_banca</text><rect height="22" width="34.06306457519531" y="46" x="68.09065246582031" class="er attributeBoxEven"/><text transform="translate(73.09065246582031,57)" style="dominant-baseline: middle; font-size: 10.2px;" y="0" x="0" id="text-entity-Banca-3b16b134-4c44-59a4-8df2-2fe32b88624b-attr-2-name" class="er entityLabel">TEXT</text><rect height="22" width="22.68768310546875" y="46" x="102.15371704101562" class="er attributeBoxEven"/><text transform="translate(107.15371704101562,57)" style="dominant-baseline: middle; font-size: 10.2px;" y="0" x="0" id="text-entity-Banca-3b16b134-4c44-59a4-8df2-2fe32b88624b-attr-2-key" class="er entityLabel"/><rect height="22" width="68.09065246582031" y="68" x="0" class="er attributeBoxOdd"/><text transform="translate(5,79)" style="dominant-baseline: middle; font-size: 10.2px;" y="0" x="0" id="text-entity-Banca-3b16b134-4c44-59a4-8df2-2fe32b88624b-attr-3-type" class="er entityLabel">regiao</text><rect height="22" width="34.06306457519531" y="68" x="68.09065246582031" class="er attributeBoxOdd"/><text transform="translate(73.09065246582031,79)" style="dominant-baseline: middle; font-size: 10.2px;" y="0" x="0" id="text-entity-Banca-3b16b134-4c44-59a4-8df2-2fe32b88624b-attr-3-name" class="er entityLabel">TEXT</text><rect height="22" width="22.68768310546875" y="68" x="102.15371704101562" class="er attributeBoxOdd"/><text transform="translate(107.15371704101562,79)" style="dominant-baseline: middle; font-size: 10.2px;" y="0" x="0" id="text-entity-Banca-3b16b134-4c44-59a4-8df2-2fe32b88624b-attr-3-key" class="er entityLabel"/></g><g transform="translate(20,31 )" id="entity-Produto-912dcf5c-6bdf-52d4-a960-09ae855ca7b5"><rect height="112" width="133.5970458984375" y="0" x="0" class="er entityBox"/><text transform="translate(66.79852294921875,12)" style="dominant-baseline: middle; text-anchor: middle; font-size: 12px;" y="0" x="0" id="text-entity-Produto-912dcf5c-6bdf-52d4-a960-09ae855ca7b5" class="er entityLabel">Produto</text><rect height="22" width="76.84629821777344" y="24" x="0" class="er attributeBoxOdd"/><text transform="translate(5,35)" style="dominant-baseline: middle; font-size: 10.2px;" y="0" x="0" id="text-entity-Produto-912dcf5c-6bdf-52d4-a960-09ae855ca7b5-attr-1-type" class="er entityLabel">id_produto</text><rect height="22" width="34.06306457519531" y="24" x="76.84629821777344" class="er attributeBoxOdd"/><text transform="translate(81.84629821777344,35)" style="dominant-baseline: middle; font-size: 10.2px;" y="0" x="0" id="text-entity-Produto-912dcf5c-6bdf-52d4-a960-09ae855ca7b5-attr-1-name" class="er entityLabel">TEXT</text><rect height="22" width="22.68768310546875" y="24" x="110.90936279296875" class="er attributeBoxOdd"/><text transform="translate(115.90936279296875,35)" style="dominant-baseline: middle; font-size: 10.2px;" y="0" x="0" id="text-entity-Produto-912dcf5c-6bdf-52d4-a960-09ae855ca7b5-attr-1-key" class="er entityLabel">PK</text><rect height="22" width="76.84629821777344" y="46" x="0" class="er attributeBoxEven"/><text transform="translate(5,57)" style="dominant-baseline: middle; font-size: 10.2px;" y="0" x="0" id="text-entity-Produto-912dcf5c-6bdf-52d4-a960-09ae855ca7b5-attr-2-type" class="er entityLabel">nome_produto</text><rect height="22" width="34.06306457519531" y="46" x="76.84629821777344" class="er attributeBoxEven"/><text transform="translate(81.84629821777344,57)" style="dominant-baseline: middle; font-size: 10.2px;" y="0" x="0" id="text-entity-Produto-912dcf5c-6bdf-52d4-a960-09ae855ca7b5-attr-2-name" class="er entityLabel">TEXT</text><rect height="22" width="22.68768310546875" y="46" x="110.90936279296875" class="er attributeBoxEven"/><text transform="translate(115.90936279296875,57)" style="dominant-baseline: middle; font-size: 10.2px;" y="0" x="0" id="text-entity-Produto-912dcf5c-6bdf-52d4-a960-09ae855ca7b5-attr-2-key" class="er entityLabel"/><rect height="22" width="76.84629821777344" y="68" x="0" class="er attributeBoxOdd"/><text transform="translate(5,79)" style="dominant-baseline: middle; font-size: 10.2px;" y="0" x="0" id="text-entity-Produto-912dcf5c-6bdf-52d4-a960-09ae855ca7b5-attr-3-type" class="er entityLabel">fabricante</text><rect height="22" width="34.06306457519531" y="68" x="76.84629821777344" class="er attributeBoxOdd"/><text transform="translate(81.84629821777344,79)" style="dominant-baseline: middle; font-size: 10.2px;" y="0" x="0" id="text-entity-Produto-912dcf5c-6bdf-52d4-a960-09ae855ca7b5-attr-3-name" class="er entityLabel">TEXT</text><rect height="22" width="22.68768310546875" y="68" x="110.90936279296875" class="er attributeBoxOdd"/><text transform="translate(115.90936279296875,79)" style="dominant-baseline: middle; font-size: 10.2px;" y="0" x="0" id="text-entity-Produto-912dcf5c-6bdf-52d4-a960-09ae855ca7b5-attr-3-key" class="er entityLabel"/><rect height="22" width="76.84629821777344" y="90" x="0" class="er attributeBoxEven"/><text transform="translate(5,101)" style="dominant-baseline: middle; font-size: 10.2px;" y="0" x="0" id="text-entity-Produto-912dcf5c-6bdf-52d4-a960-09ae855ca7b5-attr-4-type" class="er entityLabel">preco</text><rect height="22" width="34.06306457519531" y="90" x="76.84629821777344" class="er attributeBoxEven"/><text transform="translate(81.84629821777344,101)" style="dominant-baseline: middle; font-size: 10.2px;" y="0" x="0" id="text-entity-Produto-912dcf5c-6bdf-52d4-a960-09ae855ca7b5-attr-4-name" class="er entityLabel">TEXT</text><rect height="22" width="22.68768310546875" y="90" x="110.90936279296875" class="er attributeBoxEven"/><text transform="translate(115.90936279296875,101)" style="dominant-baseline: middle; font-size: 10.2px;" y="0" x="0" id="text-entity-Produto-912dcf5c-6bdf-52d4-a960-09ae855ca7b5-attr-4-key" class="er entityLabel"/></g><g transform="translate(483.64759063720703,31 )" id="entity-Policial-b36d200b-abdc-5986-ac24-76ef2e776174"><rect height="112" width="139.693115234375" y="0" x="0" class="er entityBox"/><text transform="translate(69.8465576171875,12)" style="dominant-baseline: middle; text-anchor: middle; font-size: 12px;" y="0" x="0" id="text-entity-Policial-b36d200b-abdc-5986-ac24-76ef2e776174" class="er entityLabel">Policial</text><rect height="22" width="82.94236755371094" y="24" x="0" class="er attributeBoxOdd"/><text transform="translate(5,35)" style="dominant-baseline: middle; font-size: 10.2px;" y="0" x="0" id="text-entity-Policial-b36d200b-abdc-5986-ac24-76ef2e776174-attr-1-type" class="er entityLabel">id_policial</text><rect height="22" width="34.06306457519531" y="24" x="82.94236755371094" class="er attributeBoxOdd"/><text transform="translate(87.94236755371094,35)" style="dominant-baseline: middle; font-size: 10.2px;" y="0" x="0" id="text-entity-Policial-b36d200b-abdc-5986-ac24-76ef2e776174-attr-1-name" class="er entityLabel">TEXT</text><rect height="22" width="22.68768310546875" y="24" x="117.00543212890625" class="er attributeBoxOdd"/><text transform="translate(122.00543212890625,35)" style="dominant-baseline: middle; font-size: 10.2px;" y="0" x="0" id="text-entity-Policial-b36d200b-abdc-5986-ac24-76ef2e776174-attr-1-key" class="er entityLabel">PK</text><rect height="22" width="82.94236755371094" y="46" x="0" class="er attributeBoxEven"/><text transform="translate(5,57)" style="dominant-baseline: middle; font-size: 10.2px;" y="0" x="0" id="text-entity-Policial-b36d200b-abdc-5986-ac24-76ef2e776174-attr-2-type" class="er entityLabel">nome_policial</text><rect height="22" width="34.06306457519531" y="46" x="82.94236755371094" class="er attributeBoxEven"/><text transform="translate(87.94236755371094,57)" style="dominant-baseline: middle; font-size: 10.2px;" y="0" x="0" id="text-entity-Policial-b36d200b-abdc-5986-ac24-76ef2e776174-attr-2-name" class="er entityLabel">TEXT</text><rect height="22" width="22.68768310546875" y="46" x="117.00543212890625" class="er attributeBoxEven"/><text transform="translate(122.00543212890625,57)" style="dominant-baseline: middle; font-size: 10.2px;" y="0" x="0" id="text-entity-Policial-b36d200b-abdc-5986-ac24-76ef2e776174-attr-2-key" class="er entityLabel"/><rect height="22" width="82.94236755371094" y="68" x="0" class="er attributeBoxOdd"/><text transform="translate(5,79)" style="dominant-baseline: middle; font-size: 10.2px;" y="0" x="0" id="text-entity-Policial-b36d200b-abdc-5986-ac24-76ef2e776174-attr-3-type" class="er entityLabel">patente</text><rect height="22" width="34.06306457519531" y="68" x="82.94236755371094" class="er attributeBoxOdd"/><text transform="translate(87.94236755371094,79)" style="dominant-baseline: middle; font-size: 10.2px;" y="0" x="0" id="text-entity-Policial-b36d200b-abdc-5986-ac24-76ef2e776174-attr-3-name" class="er entityLabel">TEXT</text><rect height="22" width="22.68768310546875" y="68" x="117.00543212890625" class="er attributeBoxOdd"/><text transform="translate(122.00543212890625,79)" style="dominant-baseline: middle; font-size: 10.2px;" y="0" x="0" id="text-entity-Policial-b36d200b-abdc-5986-ac24-76ef2e776174-attr-3-key" class="er entityLabel"/><rect height="22" width="82.94236755371094" y="90" x="0" class="er attributeBoxEven"/><text transform="translate(5,101)" style="dominant-baseline: middle; font-size: 10.2px;" y="0" x="0" id="text-entity-Policial-b36d200b-abdc-5986-ac24-76ef2e776174-attr-4-type" class="er entityLabel">regiao_patrulha</text><rect height="22" width="34.06306457519531" y="90" x="82.94236755371094" class="er attributeBoxEven"/><text transform="translate(87.94236755371094,101)" style="dominant-baseline: middle; font-size: 10.2px;" y="0" x="0" id="text-entity-Policial-b36d200b-abdc-5986-ac24-76ef2e776174-attr-4-name" class="er entityLabel">TEXT</text><rect height="22" width="22.68768310546875" y="90" x="117.00543212890625" class="er attributeBoxEven"/><text transform="translate(122.00543212890625,101)" style="dominant-baseline: middle; font-size: 10.2px;" y="0" x="0" id="text-entity-Policial-b36d200b-abdc-5986-ac24-76ef2e776174-attr-4-key" class="er entityLabel"/></g><g transform="translate(765.6058120727539,20 )" id="entity-Civil-031beb71-c2d2-5c1b-87bd-8ae497f72221"><rect height="134" width="111.69795227050781" y="0" x="0" class="er entityBox"/><text transform="translate(55.848976135253906,12)" style="dominant-baseline: middle; text-anchor: middle; font-size: 12px;" y="0" x="0" id="text-entity-Civil-031beb71-c2d2-5c1b-87bd-8ae497f72221" class="er entityLabel">Civil</text><rect height="22" width="38.91510009765625" y="24" x="0" class="er attributeBoxOdd"/><text transform="translate(5,35)" style="dominant-baseline: middle; font-size: 10.2px;" y="0" x="0" id="text-entity-Civil-031beb71-c2d2-5c1b-87bd-8ae497f72221-attr-1-type" class="er entityLabel">cpf</text><rect height="22" width="50.09516906738281" y="24" x="38.91510009765625" class="er attributeBoxOdd"/><text transform="translate(43.91510009765625,35)" style="dominant-baseline: middle; font-size: 10.2px;" y="0" x="0" id="text-entity-Civil-031beb71-c2d2-5c1b-87bd-8ae497f72221-attr-1-name" class="er entityLabel">TEXT</text><rect height="22" width="22.68768310546875" y="24" x="89.01026916503906" class="er attributeBoxOdd"/><text transform="translate(94.01026916503906,35)" style="dominant-baseline: middle; font-size: 10.2px;" y="0" x="0" id="text-entity-Civil-031beb71-c2d2-5c1b-87bd-8ae497f72221-attr-1-key" class="er entityLabel">PK</text><rect height="22" width="38.91510009765625" y="46" x="0" class="er attributeBoxEven"/><text transform="translate(5,57)" style="dominant-baseline: middle; font-size: 10.2px;" y="0" x="0" id="text-entity-Civil-031beb71-c2d2-5c1b-87bd-8ae497f72221-attr-2-type" class="er entityLabel">nome</text><rect height="22" width="50.09516906738281" y="46" x="38.91510009765625" class="er attributeBoxEven"/><text transform="translate(43.91510009765625,57)" style="dominant-baseline: middle; font-size: 10.2px;" y="0" x="0" id="text-entity-Civil-031beb71-c2d2-5c1b-87bd-8ae497f72221-attr-2-name" class="er entityLabel">TEXT</text><rect height="22" width="22.68768310546875" y="46" x="89.01026916503906" class="er attributeBoxEven"/><text transform="translate(94.01026916503906,57)" style="dominant-baseline: middle; font-size: 10.2px;" y="0" x="0" id="text-entity-Civil-031beb71-c2d2-5c1b-87bd-8ae497f72221-attr-2-key" class="er entityLabel"/><rect height="22" width="38.91510009765625" y="68" x="0" class="er attributeBoxOdd"/><text transform="translate(5,79)" style="dominant-baseline: middle; font-size: 10.2px;" y="0" x="0" id="text-entity-Civil-031beb71-c2d2-5c1b-87bd-8ae497f72221-attr-3-type" class="er entityLabel">idade</text><rect height="22" width="50.09516906738281" y="68" x="38.91510009765625" class="er attributeBoxOdd"/><text transform="translate(43.91510009765625,79)" style="dominant-baseline: middle; font-size: 10.2px;" y="0" x="0" id="text-entity-Civil-031beb71-c2d2-5c1b-87bd-8ae497f72221-attr-3-name" class="er entityLabel">INTEGER</text><rect height="22" width="22.68768310546875" y="68" x="89.01026916503906" class="er attributeBoxOdd"/><text transform="translate(94.01026916503906,79)" style="dominant-baseline: middle; font-size: 10.2px;" y="0" x="0" id="text-entity-Civil-031beb71-c2d2-5c1b-87bd-8ae497f72221-attr-3-key" class="er entityLabel"/><rect height="22" width="38.91510009765625" y="90" x="0" class="er attributeBoxEven"/><text transform="translate(5,101)" style="dominant-baseline: middle; font-size: 10.2px;" y="0" x="0" id="text-entity-Civil-031beb71-c2d2-5c1b-87bd-8ae497f72221-attr-4-type" class="er entityLabel">sexo</text><rect height="22" width="50.09516906738281" y="90" x="38.91510009765625" class="er attributeBoxEven"/><text transform="translate(43.91510009765625,101)" style="dominant-baseline: middle; font-size: 10.2px;" y="0" x="0" id="text-entity-Civil-031beb71-c2d2-5c1b-87bd-8ae497f72221-attr-4-name" class="er entityLabel">TEXT</text><rect height="22" width="22.68768310546875" y="90" x="89.01026916503906" class="er attributeBoxEven"/><text transform="translate(94.01026916503906,101)" style="dominant-baseline: middle; font-size: 10.2px;" y="0" x="0" id="text-entity-Civil-031beb71-c2d2-5c1b-87bd-8ae497f72221-attr-4-key" class="er entityLabel"/><rect height="22" width="38.91510009765625" y="112" x="0" class="er attributeBoxOdd"/><text transform="translate(5,123)" style="dominant-baseline: middle; font-size: 10.2px;" y="0" x="0" id="text-entity-Civil-031beb71-c2d2-5c1b-87bd-8ae497f72221-attr-5-type" class="er entityLabel">regiao</text><rect height="22" width="50.09516906738281" y="112" x="38.91510009765625" class="er attributeBoxOdd"/><text transform="translate(43.91510009765625,123)" style="dominant-baseline: middle; font-size: 10.2px;" y="0" x="0" id="text-entity-Civil-031beb71-c2d2-5c1b-87bd-8ae497f72221-attr-5-name" class="er entityLabel">TEXT</text><rect height="22" width="22.68768310546875" y="112" x="89.01026916503906" class="er attributeBoxOdd"/><text transform="translate(94.01026916503906,123)" style="dominant-baseline: middle; font-size: 10.2px;" y="0" x="0" id="text-entity-Civil-031beb71-c2d2-5c1b-87bd-8ae497f72221-attr-5-key" class="er entityLabel"/></g><g transform="translate(734.6074295043945,265 )" id="entity-Compra-7a3e4342-9ca5-5899-a3ae-7989b92da001"><rect height="178" width="173.69471740722656" y="0" x="0" class="er entityBox"/><text transform="translate(86.84735870361328,12)" style="dominant-baseline: middle; text-anchor: middle; font-size: 12px;" y="0" x="0" id="text-entity-Compra-7a3e4342-9ca5-5899-a3ae-7989b92da001" class="er entityLabel">Compra</text><rect height="22" width="116.9439697265625" y="24" x="0" class="er attributeBoxOdd"/><text transform="translate(5,35)" style="dominant-baseline: middle; font-size: 10.2px;" y="0" x="0" id="text-entity-Compra-7a3e4342-9ca5-5899-a3ae-7989b92da001-attr-1-type" class="er entityLabel">id_compra</text><rect height="22" width="34.06306457519531" y="24" x="116.9439697265625" class="er attributeBoxOdd"/><text transform="translate(121.9439697265625,35)" style="dominant-baseline: middle; font-size: 10.2px;" y="0" x="0" id="text-entity-Compra-7a3e4342-9ca5-5899-a3ae-7989b92da001-attr-1-name" class="er entityLabel">TEXT</text><rect height="22" width="22.68768310546875" y="24" x="151.0070343017578" class="er attributeBoxOdd"/><text transform="translate(156.0070343017578,35)" style="dominant-baseline: middle; font-size: 10.2px;" y="0" x="0" id="text-entity-Compra-7a3e4342-9ca5-5899-a3ae-7989b92da001-attr-1-key" class="er entityLabel">PK</text><rect height="22" width="116.9439697265625" y="46" x="0" class="er attributeBoxEven"/><text transform="translate(5,57)" style="dominant-baseline: middle; font-size: 10.2px;" y="0" x="0" id="text-entity-Compra-7a3e4342-9ca5-5899-a3ae-7989b92da001-attr-2-type" class="er entityLabel">cpf_comprador</text><rect height="22" width="34.06306457519531" y="46" x="116.9439697265625" class="er attributeBoxEven"/><text transform="translate(121.9439697265625,57)" style="dominant-baseline: middle; font-size: 10.2px;" y="0" x="0" id="text-entity-Compra-7a3e4342-9ca5-5899-a3ae-7989b92da001-attr-2-name" class="er entityLabel">TEXT</text><rect height="22" width="22.68768310546875" y="46" x="151.0070343017578" class="er attributeBoxEven"/><text transform="translate(156.0070343017578,57)" style="dominant-baseline: middle; font-size: 10.2px;" y="0" x="0" id="text-entity-Compra-7a3e4342-9ca5-5899-a3ae-7989b92da001-attr-2-key" class="er entityLabel"/><rect height="22" width="116.9439697265625" y="68" x="0" class="er attributeBoxOdd"/><text transform="translate(5,79)" style="dominant-baseline: middle; font-size: 10.2px;" y="0" x="0" id="text-entity-Compra-7a3e4342-9ca5-5899-a3ae-7989b92da001-attr-3-type" class="er entityLabel">nome_estabelecimento</text><rect height="22" width="34.06306457519531" y="68" x="116.9439697265625" class="er attributeBoxOdd"/><text transform="translate(121.9439697265625,79)" style="dominant-baseline: middle; font-size: 10.2px;" y="0" x="0" id="text-entity-Compra-7a3e4342-9ca5-5899-a3ae-7989b92da001-attr-3-name" class="er entityLabel">TEXT</text><rect height="22" width="22.68768310546875" y="68" x="151.0070343017578" class="er attributeBoxOdd"/><text transform="translate(156.0070343017578,79)" style="dominant-baseline: middle; font-size: 10.2px;" y="0" x="0" id="text-entity-Compra-7a3e4342-9ca5-5899-a3ae-7989b92da001-attr-3-key" class="er entityLabel"/><rect height="22" width="116.9439697265625" y="90" x="0" class="er attributeBoxEven"/><text transform="translate(5,101)" style="dominant-baseline: middle; font-size: 10.2px;" y="0" x="0" id="text-entity-Compra-7a3e4342-9ca5-5899-a3ae-7989b92da001-attr-4-type" class="er entityLabel">nome_produto</text><rect height="22" width="34.06306457519531" y="90" x="116.9439697265625" class="er attributeBoxEven"/><text transform="translate(121.9439697265625,101)" style="dominant-baseline: middle; font-size: 10.2px;" y="0" x="0" id="text-entity-Compra-7a3e4342-9ca5-5899-a3ae-7989b92da001-attr-4-name" class="er entityLabel">TEXT</text><rect height="22" width="22.68768310546875" y="90" x="151.0070343017578" class="er attributeBoxEven"/><text transform="translate(156.0070343017578,101)" style="dominant-baseline: middle; font-size: 10.2px;" y="0" x="0" id="text-entity-Compra-7a3e4342-9ca5-5899-a3ae-7989b92da001-attr-4-key" class="er entityLabel"/><rect height="22" width="116.9439697265625" y="112" x="0" class="er attributeBoxOdd"/><text transform="translate(5,123)" style="dominant-baseline: middle; font-size: 10.2px;" y="0" x="0" id="text-entity-Compra-7a3e4342-9ca5-5899-a3ae-7989b92da001-attr-5-type" class="er entityLabel">dia_compra</text><rect height="22" width="34.06306457519531" y="112" x="116.9439697265625" class="er attributeBoxOdd"/><text transform="translate(121.9439697265625,123)" style="dominant-baseline: middle; font-size: 10.2px;" y="0" x="0" id="text-entity-Compra-7a3e4342-9ca5-5899-a3ae-7989b92da001-attr-5-name" class="er entityLabel">TEXT</text><rect height="22" width="22.68768310546875" y="112" x="151.0070343017578" class="er attributeBoxOdd"/><text transform="translate(156.0070343017578,123)" style="dominant-baseline: middle; font-size: 10.2px;" y="0" x="0" id="text-entity-Compra-7a3e4342-9ca5-5899-a3ae-7989b92da001-attr-5-key" class="er entityLabel"/><rect height="22" width="116.9439697265625" y="134" x="0" class="er attributeBoxEven"/><text transform="translate(5,145)" style="dominant-baseline: middle; font-size: 10.2px;" y="0" x="0" id="text-entity-Compra-7a3e4342-9ca5-5899-a3ae-7989b92da001-attr-6-type" class="er entityLabel">mes_compra</text><rect height="22" width="34.06306457519531" y="134" x="116.9439697265625" class="er attributeBoxEven"/><text transform="translate(121.9439697265625,145)" style="dominant-baseline: middle; font-size: 10.2px;" y="0" x="0" id="text-entity-Compra-7a3e4342-9ca5-5899-a3ae-7989b92da001-attr-6-name" class="er entityLabel">TEXT</text><rect height="22" width="22.68768310546875" y="134" x="151.0070343017578" class="er attributeBoxEven"/><text transform="translate(156.0070343017578,145)" style="dominant-baseline: middle; font-size: 10.2px;" y="0" x="0" id="text-entity-Compra-7a3e4342-9ca5-5899-a3ae-7989b92da001-attr-6-key" class="er entityLabel"/><rect height="22" width="116.9439697265625" y="156" x="0" class="er attributeBoxOdd"/><text transform="translate(5,167)" style="dominant-baseline: middle; font-size: 10.2px;" y="0" x="0" id="text-entity-Compra-7a3e4342-9ca5-5899-a3ae-7989b92da001-attr-7-type" class="er entityLabel">ano_compra</text><rect height="22" width="34.06306457519531" y="156" x="116.9439697265625" class="er attributeBoxOdd"/><text transform="translate(121.9439697265625,167)" style="dominant-baseline: middle; font-size: 10.2px;" y="0" x="0" id="text-entity-Compra-7a3e4342-9ca5-5899-a3ae-7989b92da001-attr-7-name" class="er entityLabel">TEXT</text><rect height="22" width="22.68768310546875" y="156" x="151.0070343017578" class="er attributeBoxOdd"/><text transform="translate(156.0070343017578,167)" style="dominant-baseline: middle; font-size: 10.2px;" y="0" x="0" id="text-entity-Compra-7a3e4342-9ca5-5899-a3ae-7989b92da001-attr-7-key" class="er entityLabel"/></g><g transform="translate(139.83586883544922,320 )" id="entity-BancaHasProduto-417bbb59-e8b1-5be0-ac3c-993e0614dc54"><rect height="68" width="123.14453125" y="0" x="0" class="er entityBox"/><text transform="translate(61.572265625,12)" style="dominant-baseline: middle; text-anchor: middle; font-size: 12px;" y="0" x="0" id="text-entity-BancaHasProduto-417bbb59-e8b1-5be0-ac3c-993e0614dc54" class="er entityLabel">BancaHasProduto</text><rect height="22" width="74.7212142944336" y="24" x="0" class="er attributeBoxOdd"/><text transform="translate(5,35)" style="dominant-baseline: middle; font-size: 10.2px;" y="0" x="0" id="text-entity-BancaHasProduto-417bbb59-e8b1-5be0-ac3c-993e0614dc54-attr-1-type" class="er entityLabel">id_banca</text><rect height="22" width="48.423316955566406" y="24" x="74.7212142944336" class="er attributeBoxOdd"/><text transform="translate(79.7212142944336,35)" style="dominant-baseline: middle; font-size: 10.2px;" y="0" x="0" id="text-entity-BancaHasProduto-417bbb59-e8b1-5be0-ac3c-993e0614dc54-attr-1-name" class="er entityLabel">TEXT</text><rect height="22" width="74.7212142944336" y="46" x="0" class="er attributeBoxEven"/><text transform="translate(5,57)" style="dominant-baseline: middle; font-size: 10.2px;" y="0" x="0" id="text-entity-BancaHasProduto-417bbb59-e8b1-5be0-ac3c-993e0614dc54-attr-2-type" class="er entityLabel">id_produto</text><rect height="22" width="48.423316955566406" y="46" x="74.7212142944336" class="er attributeBoxEven"/><text transform="translate(79.7212142944336,57)" style="dominant-baseline: middle; font-size: 10.2px;" y="0" x="0" id="text-entity-BancaHasProduto-417bbb59-e8b1-5be0-ac3c-993e0614dc54-attr-2-name" class="er entityLabel">TEXT</text></g><g transform="translate(472.38086700439453,254 )" id="entity-CasoPessoaDesaparecida-3d7af6cd-3c1f-5f69-9895-761d7ebf56e9"><rect height="200" width="162.2265625" y="0" x="0" class="er entityBox"/><text transform="translate(81.11328125,12)" style="dominant-baseline: middle; text-anchor: middle; font-size: 12px;" y="0" x="0" id="text-entity-CasoPessoaDesaparecida-3d7af6cd-3c1f-5f69-9895-761d7ebf56e9" class="er entityLabel">CasoPessoaDesaparecida</text><rect height="22" width="95.68964131673177" y="24" x="0" class="er attributeBoxOdd"/><text transform="translate(5,35)" style="dominant-baseline: middle; font-size: 10.2px;" y="0" x="0" id="text-entity-CasoPessoaDesaparecida-3d7af6cd-3c1f-5f69-9895-761d7ebf56e9-attr-1-type" class="er entityLabel">id_caso</text><rect height="22" width="38.9561513264974" y="24" x="95.68964131673177" class="er attributeBoxOdd"/><text transform="translate(100.68964131673177,35)" style="dominant-baseline: middle; font-size: 10.2px;" y="0" x="0" id="text-entity-CasoPessoaDesaparecida-3d7af6cd-3c1f-5f69-9895-761d7ebf56e9-attr-1-name" class="er entityLabel">TEXT</text><rect height="22" width="27.580769856770832" y="24" x="134.64579264322916" class="er attributeBoxOdd"/><text transform="translate(139.64579264322916,35)" style="dominant-baseline: middle; font-size: 10.2px;" y="0" x="0" id="text-entity-CasoPessoaDesaparecida-3d7af6cd-3c1f-5f69-9895-761d7ebf56e9-attr-1-key" class="er entityLabel">PK</text><rect height="22" width="95.68964131673177" y="46" x="0" class="er attributeBoxEven"/><text transform="translate(5,57)" style="dominant-baseline: middle; font-size: 10.2px;" y="0" x="0" id="text-entity-CasoPessoaDesaparecida-3d7af6cd-3c1f-5f69-9895-761d7ebf56e9-attr-2-type" class="er entityLabel">id_policial</text><rect height="22" width="38.9561513264974" y="46" x="95.68964131673177" class="er attributeBoxEven"/><text transform="translate(100.68964131673177,57)" style="dominant-baseline: middle; font-size: 10.2px;" y="0" x="0" id="text-entity-CasoPessoaDesaparecida-3d7af6cd-3c1f-5f69-9895-761d7ebf56e9-attr-2-name" class="er entityLabel">TEXT</text><rect height="22" width="27.580769856770832" y="46" x="134.64579264322916" class="er attributeBoxEven"/><text transform="translate(139.64579264322916,57)" style="dominant-baseline: middle; font-size: 10.2px;" y="0" x="0" id="text-entity-CasoPessoaDesaparecida-3d7af6cd-3c1f-5f69-9895-761d7ebf56e9-attr-2-key" class="er entityLabel"/><rect height="22" width="95.68964131673177" y="68" x="0" class="er attributeBoxOdd"/><text transform="translate(5,79)" style="dominant-baseline: middle; font-size: 10.2px;" y="0" x="0" id="text-entity-CasoPessoaDesaparecida-3d7af6cd-3c1f-5f69-9895-761d7ebf56e9-attr-3-type" class="er entityLabel">cpf_desaparecido</text><rect height="22" width="38.9561513264974" y="68" x="95.68964131673177" class="er attributeBoxOdd"/><text transform="translate(100.68964131673177,79)" style="dominant-baseline: middle; font-size: 10.2px;" y="0" x="0" id="text-entity-CasoPessoaDesaparecida-3d7af6cd-3c1f-5f69-9895-761d7ebf56e9-attr-3-name" class="er entityLabel">TEXT</text><rect height="22" width="27.580769856770832" y="68" x="134.64579264322916" class="er attributeBoxOdd"/><text transform="translate(139.64579264322916,79)" style="dominant-baseline: middle; font-size: 10.2px;" y="0" x="0" id="text-entity-CasoPessoaDesaparecida-3d7af6cd-3c1f-5f69-9895-761d7ebf56e9-attr-3-key" class="er entityLabel"/><rect height="22" width="95.68964131673177" y="90" x="0" class="er attributeBoxEven"/><text transform="translate(5,101)" style="dominant-baseline: middle; font-size: 10.2px;" y="0" x="0" id="text-entity-CasoPessoaDesaparecida-3d7af6cd-3c1f-5f69-9895-761d7ebf56e9-attr-4-type" class="er entityLabel">dia_compra</text><rect height="22" width="38.9561513264974" y="90" x="95.68964131673177" class="er attributeBoxEven"/><text transform="translate(100.68964131673177,101)" style="dominant-baseline: middle; font-size: 10.2px;" y="0" x="0" id="text-entity-CasoPessoaDesaparecida-3d7af6cd-3c1f-5f69-9895-761d7ebf56e9-attr-4-name" class="er entityLabel">TEXT</text><rect height="22" width="27.580769856770832" y="90" x="134.64579264322916" class="er attributeBoxEven"/><text transform="translate(139.64579264322916,101)" style="dominant-baseline: middle; font-size: 10.2px;" y="0" x="0" id="text-entity-CasoPessoaDesaparecida-3d7af6cd-3c1f-5f69-9895-761d7ebf56e9-attr-4-key" class="er entityLabel"/><rect height="22" width="95.68964131673177" y="112" x="0" class="er attributeBoxOdd"/><text transform="translate(5,123)" style="dominant-baseline: middle; font-size: 10.2px;" y="0" x="0" id="text-entity-CasoPessoaDesaparecida-3d7af6cd-3c1f-5f69-9895-761d7ebf56e9-attr-5-type" class="er entityLabel">mes_compra</text><rect height="22" width="38.9561513264974" y="112" x="95.68964131673177" class="er attributeBoxOdd"/><text transform="translate(100.68964131673177,123)" style="dominant-baseline: middle; font-size: 10.2px;" y="0" x="0" id="text-entity-CasoPessoaDesaparecida-3d7af6cd-3c1f-5f69-9895-761d7ebf56e9-attr-5-name" class="er entityLabel">TEXT</text><rect height="22" width="27.580769856770832" y="112" x="134.64579264322916" class="er attributeBoxOdd"/><text transform="translate(139.64579264322916,123)" style="dominant-baseline: middle; font-size: 10.2px;" y="0" x="0" id="text-entity-CasoPessoaDesaparecida-3d7af6cd-3c1f-5f69-9895-761d7ebf56e9-attr-5-key" class="er entityLabel"/><rect height="22" width="95.68964131673177" y="134" x="0" class="er attributeBoxEven"/><text transform="translate(5,145)" style="dominant-baseline: middle; font-size: 10.2px;" y="0" x="0" id="text-entity-CasoPessoaDesaparecida-3d7af6cd-3c1f-5f69-9895-761d7ebf56e9-attr-6-type" class="er entityLabel">ano_compra</text><rect height="22" width="38.9561513264974" y="134" x="95.68964131673177" class="er attributeBoxEven"/><text transform="translate(100.68964131673177,145)" style="dominant-baseline: middle; font-size: 10.2px;" y="0" x="0" id="text-entity-CasoPessoaDesaparecida-3d7af6cd-3c1f-5f69-9895-761d7ebf56e9-attr-6-name" class="er entityLabel">TEXT</text><rect height="22" width="27.580769856770832" y="134" x="134.64579264322916" class="er attributeBoxEven"/><text transform="translate(139.64579264322916,145)" style="dominant-baseline: middle; font-size: 10.2px;" y="0" x="0" id="text-entity-CasoPessoaDesaparecida-3d7af6cd-3c1f-5f69-9895-761d7ebf56e9-attr-6-key" class="er entityLabel"/><rect height="22" width="95.68964131673177" y="156" x="0" class="er attributeBoxOdd"/><text transform="translate(5,167)" style="dominant-baseline: middle; font-size: 10.2px;" y="0" x="0" id="text-entity-CasoPessoaDesaparecida-3d7af6cd-3c1f-5f69-9895-761d7ebf56e9-attr-7-type" class="er entityLabel">ultima_regiao</text><rect height="22" width="38.9561513264974" y="156" x="95.68964131673177" class="er attributeBoxOdd"/><text transform="translate(100.68964131673177,167)" style="dominant-baseline: middle; font-size: 10.2px;" y="0" x="0" id="text-entity-CasoPessoaDesaparecida-3d7af6cd-3c1f-5f69-9895-761d7ebf56e9-attr-7-name" class="er entityLabel">TEXT</text><rect height="22" width="27.580769856770832" y="156" x="134.64579264322916" class="er attributeBoxOdd"/><text transform="translate(139.64579264322916,167)" style="dominant-baseline: middle; font-size: 10.2px;" y="0" x="0" id="text-entity-CasoPessoaDesaparecida-3d7af6cd-3c1f-5f69-9895-761d7ebf56e9-attr-7-key" class="er entityLabel"/><rect height="22" width="95.68964131673177" y="178" x="0" class="er attributeBoxEven"/><text transform="translate(5,189)" style="dominant-baseline: middle; font-size: 10.2px;" y="0" x="0" id="text-entity-CasoPessoaDesaparecida-3d7af6cd-3c1f-5f69-9895-761d7ebf56e9-attr-8-type" class="er entityLabel">descricao</text><rect height="22" width="38.9561513264974" y="178" x="95.68964131673177" class="er attributeBoxEven"/><text transform="translate(100.68964131673177,189)" style="dominant-baseline: middle; font-size: 10.2px;" y="0" x="0" id="text-entity-CasoPessoaDesaparecida-3d7af6cd-3c1f-5f69-9895-761d7ebf56e9-attr-8-name" class="er entityLabel">TEXT</text><rect height="22" width="27.580769856770832" y="178" x="134.64579264322916" class="er attributeBoxEven"/><text transform="translate(139.64579264322916,189)" style="dominant-baseline: middle; font-size: 10.2px;" y="0" x="0" id="text-entity-CasoPessoaDesaparecida-3d7af6cd-3c1f-5f69-9895-761d7ebf56e9-attr-8-key" class="er entityLabel"/></g><rect height="0" width="0" y="209.5" x="821.4550170898438" class="er relationshipLabelBox"/><text style="text-anchor: middle; dominant-baseline: middle; font-size: 12px;" y="209.5" x="821.4550170898438" id="rel1" class="er relationshipLabel"/><rect height="0" width="0" y="238.0564727783203" x="115.8990707397461" class="er relationshipLabelBox"/><text style="text-anchor: middle; dominant-baseline: middle; font-size: 12px;" y="238.0564727783203" x="115.8990707397461" id="rel2" class="er relationshipLabel"/><rect height="0" width="0" y="233.33668518066406" x="289.3417663574219" class="er relationshipLabelBox"/><text style="text-anchor: middle; dominant-baseline: middle; font-size: 12px;" y="233.33668518066406" x="289.3417663574219" id="rel3" class="er relationshipLabel"/><rect height="0" width="0" y="198.5" x="553.4940185546875" class="er relationshipLabelBox"/><text style="text-anchor: middle; dominant-baseline: middle; font-size: 12px;" y="198.5" x="553.4940185546875" id="rel4" class="er relationshipLabel"/></svg>