<svg aria-roledescription="er" role="graphics-document document" viewBox="0 0 911.3018798828125 474" style="max-width: 911.3018798828125px;" xmlns:xlink="http://www.w3.org/1999/xlink" xmlns="http://www.w3.org/2000/svg" width="100%" id="mermaid-1717606113437"><style>#mermaid-1717606113437{font-family:"trebuchet ms",verdana,arial,sans-serif;font-size:16px;fill:#333;}#mermaid-1717606113437 .error-icon{fill:#552222;}#mermaid-1717606113437 .error-text{fill:#552222;stroke:#552222;}#mermaid-1717606113437 .edge-thickness-normal{stroke-width:2px;}#mermaid-1717606113437 .edge-thickness-thick{stroke-width:3.5px;}#mermaid-1717606113437 .edge-pattern-solid{stroke-dasharray:0;}#mermaid-1717606113437 .edge-pattern-dashed{stroke-dasharray:3;}#mermaid-1717606113437 .edge-pattern-dotted{stroke-dasharray:2;}#mermaid-1717606113437 .marker{fill:#333333;stroke:#333333;}#mermaid-1717606113437 .marker.cross{stroke:#333333;}#mermaid-1717606113437 svg{font-family:"trebuchet ms",verdana,arial,sans-serif;font-size:16px;}#mermaid-1717606113437 .entityBox{fill:#ECECFF;stroke:#9370DB;}#mermaid-1717606113437 .attributeBoxOdd{fill:#ffffff;stroke:#9370DB;}#mermaid-1717606113437 .attributeBoxEven{fill:#f2f2f2;stroke:#9370DB;}#mermaid-1717606113437 .relationshipLabelBox{fill:hsl(80, 100%, 96.2745098039%);opacity:0.7;background-color:hsl(80, 100%, 96.2745098039%);}#mermaid-1717606113437 .relationshipLabelBox rect{opacity:0.5;}#mermaid-1717606113437 .relationshipLine{stroke:#333333;}#mermaid-1717606113437 .entityTitleText{text-anchor:middle;font-size:18px;fill:#333;}#mermaid-1717606113437 #MD_PARENT_START{fill:#f5f5f5!important;stroke:#333333!important;stroke-width:1;}#mermaid-1717606113437 #MD_PARENT_END{fill:#f5f5f5!important;stroke:#333333!important;stroke-width:1;}#mermaid-1717606113437 :root{--mermaid-font-family:"trebuchet ms",verdana,arial,sans-serif;}</style><g/><defs><marker orient="auto" markerHeight="240" markerWidth="190" refY="7" refX="0" id="MD_PARENT_START"><path d="M 18,7 L9,13 L1,7 L9,1 Z"/></marker></defs><defs><marker orient="auto" markerHeight="28" markerWidth="20" refY="7" refX="19" id="MD_PARENT_END"><path d="M 18,7 L9,13 L1,7 L9,1 Z"/></marker></defs><defs><marker orient="auto" markerHeight="18" markerWidth="18" refY="9" refX="0" id="ONLY_ONE_START"><path d="M9,0 L9,18 M15,0 L15,18" fill="none" stroke="gray"/></marker></defs><defs><marker orient="auto" markerHeight="18" markerWidth="18" refY="9" refX="18" id="ONLY_ONE_END"><path d="M3,0 L3,18 M9,0 L9,18" fill="none" stroke="gray"/></marker></defs><defs><marker orient="auto" markerHeight="18" markerWidth="30" refY="9" refX="0" id="ZERO_OR_ONE_START"><circle r="6" cy="9" cx="21" fill="white" stroke="gray"/><path d="M9,0 L9,18" fill="none" stroke="gray"/></marker></defs><defs><marker orient="auto" markerHeight="18" markerWidth="30" refY="9" refX="30" id="ZERO_OR_ONE_END"><circle r="6" cy="9" cx="9" fill="white" stroke="gray"/><path d="M21,0 L21,18" fill="none" stroke="gray"/></marker></defs><defs><marker orient="auto" markerHeight="36" markerWidth="45" refY="18" refX="18" id="ONE_OR_MORE_START"><path d="M0,18 Q 18,0 36,18 Q 18,36 0,18 M42,9 L42,27" fill="none" stroke="gray"/></marker></defs><defs><marker orient="auto" markerHeight="36" markerWidth="45" refY="18" refX="27" id="ONE_OR_MORE_END"><path d="M3,9 L3,27 M9,18 Q27,0 45,18 Q27,36 9,18" fill="none" stroke="gray"/></marker></defs><defs><marker orient="auto" markerHeight="36" markerWidth="57" refY="18" refX="18" id="ZERO_OR_MORE_START"><circle r="6" cy="18" cx="48" fill="white" stroke="gray"/><path d="M0,18 Q18,0 36,18 Q18,36 0,18" fill="none" stroke="gray"/></marker></defs><defs><marker orient="auto" markerHeight="36" markerWidth="57" refY="18" refX="39" id="ZERO_OR_MORE_END"><circle r="6" cy="18" cx="9" fill="white" stroke="gray"/><path d="M21,18 Q39,0 57,18 Q39,36 21,18" fill="none" stroke="gray"/></marker></defs><path style="stroke: gray; fill: none;" marker-start="url(#ONLY_ONE_START)" marker-end="url(#ZERO_OR_MORE_END)" d="M821.731,198L821.731,206.333C821.731,214.667,821.731,231.333,821.731,251.667C821.731,272,821.731,296,821.731,308L821.731,320" class="er relationshipLine"/><path style="stroke: gray; fill: none;" marker-start="url(#ONLY_ONE_START)" marker-end="url(#ZERO_OR_MORE_END)" d="M86.799,154L86.799,169.667C86.799,185.333,86.799,216.667,100.826,248C114.854,279.333,142.909,310.667,156.937,326.333L170.965,342" class="er relationshipLine"/><path style="stroke: gray; fill: none;" marker-start="url(#ONLY_ONE_START)" marker-end="url(#ZERO_OR_MORE_END)" d="M316.018,154L316.018,169.667C316.018,185.333,316.018,216.667,301.99,248C287.962,279.333,259.907,310.667,245.879,326.333L231.851,342" class="er relationshipLine"/><path style="stroke: gray; fill: none;" marker-start="url(#ONLY_ONE_START)" marker-end="url(#ZERO_OR_MORE_END)" d="M752.16,133.823L698.825,152.852C645.49,171.882,538.821,209.941,493.263,237.304C447.705,264.667,463.259,281.333,471.036,289.667L478.813,298" class="er relationshipLine"/><path style="stroke: gray; fill: none;" marker-start="url(#ONLY_ONE_START)" marker-end="url(#ZERO_OR_MORE_END)" d="M566.959,165L566.959,178.833C566.959,192.667,566.959,220.333,565.959,242.5C564.959,264.667,562.96,281.333,561.96,289.667L560.961,298" class="er relationshipLine"/><g transform="translate(253.5970458984375,64 )" id="entity-Banca-3b16b134-4c44-59a4-8df2-2fe32b88624b"><rect height="90" width="124.84140014648438" y="0" x="0" class="er entityBox"/><text transform="translate(62.42070007324219,12)" style="dominant-baseline: middle; text-anchor: middle; font-size: 12px;" y="0" x="0" id="text-entity-Banca-3b16b134-4c44-59a4-8df2-2fe32b88624b" class="er entityLabel">Banca</text><rect height="22" width="68.09065246582031" y="24" x="0" class="er attributeBoxOdd"/><text transform="translate(5,35)" style="dominant-baseline: middle; font-size: 10.2px;" y="0" x="0" id="text-entity-Banca-3b16b134-4c44-59a4-8df2-2fe32b88624b-attr-1-type" class="er entityLabel">cnpj</text><rect height="22" width="34.06306457519531" y="24" x="68.09065246582031" class="er attributeBoxOdd"/><text transform="translate(73.09065246582031,35)" style="dominant-baseline: middle; font-size: 10.2px;" y="0" x="0" id="text-entity-Banca-3b16b134-4c44-59a4-8df2-2fe32b88624b-attr-1-name" class="er entityLabel">TEXT</text><rect height="22" width="22.68768310546875" y="24" x="102.15371704101562" class="er attributeBoxOdd"/><text transform="translate(107.15371704101562,35)" style="dominant-baseline: middle; font-size: 10.2px;" y="0" x="0" id="text-entity-Banca-3b16b134-4c44-59a4-8df2-2fe32b88624b-attr-1-key" class="er entityLabel">PK</text><rect height="22" width="68.09065246582031" y="46" x="0" class="er attributeBoxEven"/><text transform="translate(5,57)" style="dominant-baseline: middle; font-size: 10.2px;" y="0" x="0" id="text-entity-Banca-3b16b134-4c44-59a4-8df2-2fe32b88624b-attr-2-type" class="er entityLabel">nome_banca</text><rect height="22" width="34.06306457519531" y="46" x="68.09065246582031" class="er attributeBoxEven"/><text transform="translate(73.09065246582031,57)" style="dominant-baseline: middle; font-size: 10.2px;" y="0" x="0" id="text-entity-Banca-3b16b134-4c44-59a4-8df2-2fe32b88624b-attr-2-name" class="er entityLabel">TEXT</text><rect height="22" width="22.68768310546875" y="46" x="102.15371704101562" class="er attributeBoxEven"/><text transform="translate(107.15371704101562,57)" style="dominant-baseline: middle; font-size: 10.2px;" y="0" x="0" id="text-entity-Banca-3b16b134-4c44-59a4-8df2-2fe32b88624b-attr-2-key" class="er entityLabel"/><rect height="22" width="68.09065246582031" y="68" x="0" class="er attributeBoxOdd"/><text transform="translate(5,79)" style="dominant-baseline: middle; font-size: 10.2px;" y="0" x="0" id="text-entity-Banca-3b16b134-4c44-59a4-8df2-2fe32b88624b-attr-3-type" class="er entityLabel">regiao</text><rect height="22" width="34.06306457519531" y="68" x="68.09065246582031" class="er attributeBoxOdd"/><text transform="translate(73.09065246582031,79)" style="dominant-baseline: middle; font-size: 10.2px;" y="0" x="0" id="text-entity-Banca-3b16b134-4c44-59a4-8df2-2fe32b88624b-attr-3-name" class="er entityLabel">TEXT</text><rect height="22" width="22.68768310546875" y="68" x="102.15371704101562" class="er attributeBoxOdd"/><text transform="translate(107.15371704101562,79)" style="dominant-baseline: middle; font-size: 10.2px;" y="0" x="0" id="text-entity-Banca-3b16b134-4c44-59a4-8df2-2fe32b88624b-attr-3-key" class="er entityLabel"/></g><g transform="translate(20,64 )" id="entity-Produto-912dcf5c-6bdf-52d4-a960-09ae855ca7b5"><rect height="90" width="133.5970458984375" y="0" x="0" class="er entityBox"/><text transform="translate(66.79852294921875,12)" style="dominant-baseline: middle; text-anchor: middle; font-size: 12px;" y="0" x="0" id="text-entity-Produto-912dcf5c-6bdf-52d4-a960-09ae855ca7b5" class="er entityLabel">Produto</text><rect height="22" width="76.84629821777344" y="24" x="0" class="er attributeBoxOdd"/><text transform="translate(5,35)" style="dominant-baseline: middle; font-size: 10.2px;" y="0" x="0" id="text-entity-Produto-912dcf5c-6bdf-52d4-a960-09ae855ca7b5-attr-1-type" class="er entityLabel">produto_id</text><rect height="22" width="34.06306457519531" y="24" x="76.84629821777344" class="er attributeBoxOdd"/><text transform="translate(81.84629821777344,35)" style="dominant-baseline: middle; font-size: 10.2px;" y="0" x="0" id="text-entity-Produto-912dcf5c-6bdf-52d4-a960-09ae855ca7b5-attr-1-name" class="er entityLabel">TEXT</text><rect height="22" width="22.68768310546875" y="24" x="110.90936279296875" class="er attributeBoxOdd"/><text transform="translate(115.90936279296875,35)" style="dominant-baseline: middle; font-size: 10.2px;" y="0" x="0" id="text-entity-Produto-912dcf5c-6bdf-52d4-a960-09ae855ca7b5-attr-1-key" class="er entityLabel">PK</text><rect height="22" width="76.84629821777344" y="46" x="0" class="er attributeBoxEven"/><text transform="translate(5,57)" style="dominant-baseline: middle; font-size: 10.2px;" y="0" x="0" id="text-entity-Produto-912dcf5c-6bdf-52d4-a960-09ae855ca7b5-attr-2-type" class="er entityLabel">nome_produto</text><rect height="22" width="34.06306457519531" y="46" x="76.84629821777344" class="er attributeBoxEven"/><text transform="translate(81.84629821777344,57)" style="dominant-baseline: middle; font-size: 10.2px;" y="0" x="0" id="text-entity-Produto-912dcf5c-6bdf-52d4-a960-09ae855ca7b5-attr-2-name" class="er entityLabel">TEXT</text><rect height="22" width="22.68768310546875" y="46" x="110.90936279296875" class="er attributeBoxEven"/><text transform="translate(115.90936279296875,57)" style="dominant-baseline: middle; font-size: 10.2px;" y="0" x="0" id="text-entity-Produto-912dcf5c-6bdf-52d4-a960-09ae855ca7b5-attr-2-key" class="er entityLabel"/><rect height="22" width="76.84629821777344" y="68" x="0" class="er attributeBoxOdd"/><text transform="translate(5,79)" style="dominant-baseline: middle; font-size: 10.2px;" y="0" x="0" id="text-entity-Produto-912dcf5c-6bdf-52d4-a960-09ae855ca7b5-attr-3-type" class="er entityLabel">fabricante</text><rect height="22" width="34.06306457519531" y="68" x="76.84629821777344" class="er attributeBoxOdd"/><text transform="translate(81.84629821777344,79)" style="dominant-baseline: middle; font-size: 10.2px;" y="0" x="0" id="text-entity-Produto-912dcf5c-6bdf-52d4-a960-09ae855ca7b5-attr-3-name" class="er entityLabel">TEXT</text><rect height="22" width="22.68768310546875" y="68" x="110.90936279296875" class="er attributeBoxOdd"/><text transform="translate(115.90936279296875,79)" style="dominant-baseline: middle; font-size: 10.2px;" y="0" x="0" id="text-entity-Produto-912dcf5c-6bdf-52d4-a960-09ae855ca7b5-attr-3-key" class="er entityLabel"/></g><g transform="translate(497.11194610595703,53 )" id="entity-Policial-b36d200b-abdc-5986-ac24-76ef2e776174"><rect height="112" width="139.693115234375" y="0" x="0" class="er entityBox"/><text transform="translate(69.8465576171875,12)" style="dominant-baseline: middle; text-anchor: middle; font-size: 12px;" y="0" x="0" id="text-entity-Policial-b36d200b-abdc-5986-ac24-76ef2e776174" class="er entityLabel">Policial</text><rect height="22" width="82.94236755371094" y="24" x="0" class="er attributeBoxOdd"/><text transform="translate(5,35)" style="dominant-baseline: middle; font-size: 10.2px;" y="0" x="0" id="text-entity-Policial-b36d200b-abdc-5986-ac24-76ef2e776174-attr-1-type" class="er entityLabel">policial_id</text><rect height="22" width="34.06306457519531" y="24" x="82.94236755371094" class="er attributeBoxOdd"/><text transform="translate(87.94236755371094,35)" style="dominant-baseline: middle; font-size: 10.2px;" y="0" x="0" id="text-entity-Policial-b36d200b-abdc-5986-ac24-76ef2e776174-attr-1-name" class="er entityLabel">TEXT</text><rect height="22" width="22.68768310546875" y="24" x="117.00543212890625" class="er attributeBoxOdd"/><text transform="translate(122.00543212890625,35)" style="dominant-baseline: middle; font-size: 10.2px;" y="0" x="0" id="text-entity-Policial-b36d200b-abdc-5986-ac24-76ef2e776174-attr-1-key" class="er entityLabel">PK</text><rect height="22" width="82.94236755371094" y="46" x="0" class="er attributeBoxEven"/><text transform="translate(5,57)" style="dominant-baseline: middle; font-size: 10.2px;" y="0" x="0" id="text-entity-Policial-b36d200b-abdc-5986-ac24-76ef2e776174-attr-2-type" class="er entityLabel">nome_policial</text><rect height="22" width="34.06306457519531" y="46" x="82.94236755371094" class="er attributeBoxEven"/><text transform="translate(87.94236755371094,57)" style="dominant-baseline: middle; font-size: 10.2px;" y="0" x="0" id="text-entity-Policial-b36d200b-abdc-5986-ac24-76ef2e776174-attr-2-name" class="er entityLabel">TEXT</text><rect height="22" width="22.68768310546875" y="46" x="117.00543212890625" class="er attributeBoxEven"/><text transform="translate(122.00543212890625,57)" style="dominant-baseline: middle; font-size: 10.2px;" y="0" x="0" id="text-entity-Policial-b36d200b-abdc-5986-ac24-76ef2e776174-attr-2-key" class="er entityLabel"/><rect height="22" width="82.94236755371094" y="68" x="0" class="er attributeBoxOdd"/><text transform="translate(5,79)" style="dominant-baseline: middle; font-size: 10.2px;" y="0" x="0" id="text-entity-Policial-b36d200b-abdc-5986-ac24-76ef2e776174-attr-3-type" class="er entityLabel">patente</text><rect height="22" width="34.06306457519531" y="68" x="82.94236755371094" class="er attributeBoxOdd"/><text transform="translate(87.94236755371094,79)" style="dominant-baseline: middle; font-size: 10.2px;" y="0" x="0" id="text-entity-Policial-b36d200b-abdc-5986-ac24-76ef2e776174-attr-3-name" class="er entityLabel">TEXT</text><rect height="22" width="22.68768310546875" y="68" x="117.00543212890625" class="er attributeBoxOdd"/><text transform="translate(122.00543212890625,79)" style="dominant-baseline: middle; font-size: 10.2px;" y="0" x="0" id="text-entity-Policial-b36d200b-abdc-5986-ac24-76ef2e776174-attr-3-key" class="er entityLabel"/><rect height="22" width="82.94236755371094" y="90" x="0" class="er attributeBoxEven"/><text transform="translate(5,101)" style="dominant-baseline: middle; font-size: 10.2px;" y="0" x="0" id="text-entity-Policial-b36d200b-abdc-5986-ac24-76ef2e776174-attr-4-type" class="er entityLabel">regiao_patrulha</text><rect height="22" width="34.06306457519531" y="90" x="82.94236755371094" class="er attributeBoxEven"/><text transform="translate(87.94236755371094,101)" style="dominant-baseline: middle; font-size: 10.2px;" y="0" x="0" id="text-entity-Policial-b36d200b-abdc-5986-ac24-76ef2e776174-attr-4-name" class="er entityLabel">TEXT</text><rect height="22" width="22.68768310546875" y="90" x="117.00543212890625" class="er attributeBoxEven"/><text transform="translate(122.00543212890625,101)" style="dominant-baseline: middle; font-size: 10.2px;" y="0" x="0" id="text-entity-Policial-b36d200b-abdc-5986-ac24-76ef2e776174-attr-4-key" class="er entityLabel"/></g><g transform="translate(752.1596717834473,20 )" id="entity-Pessoa-0cf1c23e-f9bc-5794-acbf-e7852fcad1c9"><rect height="178" width="139.14222717285156" y="0" x="0" class="er entityBox"/><text transform="translate(69.57111358642578,12)" style="dominant-baseline: middle; text-anchor: middle; font-size: 12px;" y="0" x="0" id="text-entity-Pessoa-0cf1c23e-f9bc-5794-acbf-e7852fcad1c9" class="er entityLabel">Pessoa</text><rect height="22" width="66.359375" y="24" x="0" class="er attributeBoxOdd"/><text transform="translate(5,35)" style="dominant-baseline: middle; font-size: 10.2px;" y="0" x="0" id="text-entity-Pessoa-0cf1c23e-f9bc-5794-acbf-e7852fcad1c9-attr-1-type" class="er entityLabel">cpf</text><rect height="22" width="50.09516906738281" y="24" x="66.359375" class="er attributeBoxOdd"/><text transform="translate(71.359375,35)" style="dominant-baseline: middle; font-size: 10.2px;" y="0" x="0" id="text-entity-Pessoa-0cf1c23e-f9bc-5794-acbf-e7852fcad1c9-attr-1-name" class="er entityLabel">TEXT</text><rect height="22" width="22.68768310546875" y="24" x="116.45454406738281" class="er attributeBoxOdd"/><text transform="translate(121.45454406738281,35)" style="dominant-baseline: middle; font-size: 10.2px;" y="0" x="0" id="text-entity-Pessoa-0cf1c23e-f9bc-5794-acbf-e7852fcad1c9-attr-1-key" class="er entityLabel">PK</text><rect height="22" width="66.359375" y="46" x="0" class="er attributeBoxEven"/><text transform="translate(5,57)" style="dominant-baseline: middle; font-size: 10.2px;" y="0" x="0" id="text-entity-Pessoa-0cf1c23e-f9bc-5794-acbf-e7852fcad1c9-attr-2-type" class="er entityLabel">nome</text><rect height="22" width="50.09516906738281" y="46" x="66.359375" class="er attributeBoxEven"/><text transform="translate(71.359375,57)" style="dominant-baseline: middle; font-size: 10.2px;" y="0" x="0" id="text-entity-Pessoa-0cf1c23e-f9bc-5794-acbf-e7852fcad1c9-attr-2-name" class="er entityLabel">TEXT</text><rect height="22" width="22.68768310546875" y="46" x="116.45454406738281" class="er attributeBoxEven"/><text transform="translate(121.45454406738281,57)" style="dominant-baseline: middle; font-size: 10.2px;" y="0" x="0" id="text-entity-Pessoa-0cf1c23e-f9bc-5794-acbf-e7852fcad1c9-attr-2-key" class="er entityLabel"/><rect height="22" width="66.359375" y="68" x="0" class="er attributeBoxOdd"/><text transform="translate(5,79)" style="dominant-baseline: middle; font-size: 10.2px;" y="0" x="0" id="text-entity-Pessoa-0cf1c23e-f9bc-5794-acbf-e7852fcad1c9-attr-3-type" class="er entityLabel">nome_social</text><rect height="22" width="50.09516906738281" y="68" x="66.359375" class="er attributeBoxOdd"/><text transform="translate(71.359375,79)" style="dominant-baseline: middle; font-size: 10.2px;" y="0" x="0" id="text-entity-Pessoa-0cf1c23e-f9bc-5794-acbf-e7852fcad1c9-attr-3-name" class="er entityLabel">TEXT</text><rect height="22" width="22.68768310546875" y="68" x="116.45454406738281" class="er attributeBoxOdd"/><text transform="translate(121.45454406738281,79)" style="dominant-baseline: middle; font-size: 10.2px;" y="0" x="0" id="text-entity-Pessoa-0cf1c23e-f9bc-5794-acbf-e7852fcad1c9-attr-3-key" class="er entityLabel"/><rect height="22" width="66.359375" y="90" x="0" class="er attributeBoxEven"/><text transform="translate(5,101)" style="dominant-baseline: middle; font-size: 10.2px;" y="0" x="0" id="text-entity-Pessoa-0cf1c23e-f9bc-5794-acbf-e7852fcad1c9-attr-4-type" class="er entityLabel">idade</text><rect height="22" width="50.09516906738281" y="90" x="66.359375" class="er attributeBoxEven"/><text transform="translate(71.359375,101)" style="dominant-baseline: middle; font-size: 10.2px;" y="0" x="0" id="text-entity-Pessoa-0cf1c23e-f9bc-5794-acbf-e7852fcad1c9-attr-4-name" class="er entityLabel">INTEGER</text><rect height="22" width="22.68768310546875" y="90" x="116.45454406738281" class="er attributeBoxEven"/><text transform="translate(121.45454406738281,101)" style="dominant-baseline: middle; font-size: 10.2px;" y="0" x="0" id="text-entity-Pessoa-0cf1c23e-f9bc-5794-acbf-e7852fcad1c9-attr-4-key" class="er entityLabel"/><rect height="22" width="66.359375" y="112" x="0" class="er attributeBoxOdd"/><text transform="translate(5,123)" style="dominant-baseline: middle; font-size: 10.2px;" y="0" x="0" id="text-entity-Pessoa-0cf1c23e-f9bc-5794-acbf-e7852fcad1c9-attr-5-type" class="er entityLabel">sexo</text><rect height="22" width="50.09516906738281" y="112" x="66.359375" class="er attributeBoxOdd"/><text transform="translate(71.359375,123)" style="dominant-baseline: middle; font-size: 10.2px;" y="0" x="0" id="text-entity-Pessoa-0cf1c23e-f9bc-5794-acbf-e7852fcad1c9-attr-5-name" class="er entityLabel">TEXT</text><rect height="22" width="22.68768310546875" y="112" x="116.45454406738281" class="er attributeBoxOdd"/><text transform="translate(121.45454406738281,123)" style="dominant-baseline: middle; font-size: 10.2px;" y="0" x="0" id="text-entity-Pessoa-0cf1c23e-f9bc-5794-acbf-e7852fcad1c9-attr-5-key" class="er entityLabel"/><rect height="22" width="66.359375" y="134" x="0" class="er attributeBoxEven"/><text transform="translate(5,145)" style="dominant-baseline: middle; font-size: 10.2px;" y="0" x="0" id="text-entity-Pessoa-0cf1c23e-f9bc-5794-acbf-e7852fcad1c9-attr-6-type" class="er entityLabel">genero</text><rect height="22" width="50.09516906738281" y="134" x="66.359375" class="er attributeBoxEven"/><text transform="translate(71.359375,145)" style="dominant-baseline: middle; font-size: 10.2px;" y="0" x="0" id="text-entity-Pessoa-0cf1c23e-f9bc-5794-acbf-e7852fcad1c9-attr-6-name" class="er entityLabel">TEXT</text><rect height="22" width="22.68768310546875" y="134" x="116.45454406738281" class="er attributeBoxEven"/><text transform="translate(121.45454406738281,145)" style="dominant-baseline: middle; font-size: 10.2px;" y="0" x="0" id="text-entity-Pessoa-0cf1c23e-f9bc-5794-acbf-e7852fcad1c9-attr-6-key" class="er entityLabel"/><rect height="22" width="66.359375" y="156" x="0" class="er attributeBoxOdd"/><text transform="translate(5,167)" style="dominant-baseline: middle; font-size: 10.2px;" y="0" x="0" id="text-entity-Pessoa-0cf1c23e-f9bc-5794-acbf-e7852fcad1c9-attr-7-type" class="er entityLabel">regiao</text><rect height="22" width="50.09516906738281" y="156" x="66.359375" class="er attributeBoxOdd"/><text transform="translate(71.359375,167)" style="dominant-baseline: middle; font-size: 10.2px;" y="0" x="0" id="text-entity-Pessoa-0cf1c23e-f9bc-5794-acbf-e7852fcad1c9-attr-7-name" class="er entityLabel">TEXT</text><rect height="22" width="22.68768310546875" y="156" x="116.45454406738281" class="er attributeBoxOdd"/><text transform="translate(121.45454406738281,167)" style="dominant-baseline: middle; font-size: 10.2px;" y="0" x="0" id="text-entity-Pessoa-0cf1c23e-f9bc-5794-acbf-e7852fcad1c9-attr-7-key" class="er entityLabel"/></g><g transform="translate(753.3529167175293,320 )" id="entity-Compra-7a3e4342-9ca5-5899-a3ae-7989b92da001"><rect height="112" width="136.7557373046875" y="0" x="0" class="er entityBox"/><text transform="translate(68.37786865234375,12)" style="dominant-baseline: middle; text-anchor: middle; font-size: 12px;" y="0" x="0" id="text-entity-Compra-7a3e4342-9ca5-5899-a3ae-7989b92da001" class="er entityLabel">Compra</text><rect height="22" width="80.00498962402344" y="24" x="0" class="er attributeBoxOdd"/><text transform="translate(5,35)" style="dominant-baseline: middle; font-size: 10.2px;" y="0" x="0" id="text-entity-Compra-7a3e4342-9ca5-5899-a3ae-7989b92da001-attr-1-type" class="er entityLabel">compra_id</text><rect height="22" width="34.06306457519531" y="24" x="80.00498962402344" class="er attributeBoxOdd"/><text transform="translate(85.00498962402344,35)" style="dominant-baseline: middle; font-size: 10.2px;" y="0" x="0" id="text-entity-Compra-7a3e4342-9ca5-5899-a3ae-7989b92da001-attr-1-name" class="er entityLabel">TEXT</text><rect height="22" width="22.68768310546875" y="24" x="114.06805419921875" class="er attributeBoxOdd"/><text transform="translate(119.06805419921875,35)" style="dominant-baseline: middle; font-size: 10.2px;" y="0" x="0" id="text-entity-Compra-7a3e4342-9ca5-5899-a3ae-7989b92da001-attr-1-key" class="er entityLabel">PK</text><rect height="22" width="80.00498962402344" y="46" x="0" class="er attributeBoxEven"/><text transform="translate(5,57)" style="dominant-baseline: middle; font-size: 10.2px;" y="0" x="0" id="text-entity-Compra-7a3e4342-9ca5-5899-a3ae-7989b92da001-attr-2-type" class="er entityLabel">cpf_comprador</text><rect height="22" width="34.06306457519531" y="46" x="80.00498962402344" class="er attributeBoxEven"/><text transform="translate(85.00498962402344,57)" style="dominant-baseline: middle; font-size: 10.2px;" y="0" x="0" id="text-entity-Compra-7a3e4342-9ca5-5899-a3ae-7989b92da001-attr-2-name" class="er entityLabel">TEXT</text><rect height="22" width="22.68768310546875" y="46" x="114.06805419921875" class="er attributeBoxEven"/><text transform="translate(119.06805419921875,57)" style="dominant-baseline: middle; font-size: 10.2px;" y="0" x="0" id="text-entity-Compra-7a3e4342-9ca5-5899-a3ae-7989b92da001-attr-2-key" class="er entityLabel"/><rect height="22" width="80.00498962402344" y="68" x="0" class="er attributeBoxOdd"/><text transform="translate(5,79)" style="dominant-baseline: middle; font-size: 10.2px;" y="0" x="0" id="text-entity-Compra-7a3e4342-9ca5-5899-a3ae-7989b92da001-attr-3-type" class="er entityLabel">nome_produto</text><rect height="22" width="34.06306457519531" y="68" x="80.00498962402344" class="er attributeBoxOdd"/><text transform="translate(85.00498962402344,79)" style="dominant-baseline: middle; font-size: 10.2px;" y="0" x="0" id="text-entity-Compra-7a3e4342-9ca5-5899-a3ae-7989b92da001-attr-3-name" class="er entityLabel">TEXT</text><rect height="22" width="22.68768310546875" y="68" x="114.06805419921875" class="er attributeBoxOdd"/><text transform="translate(119.06805419921875,79)" style="dominant-baseline: middle; font-size: 10.2px;" y="0" x="0" id="text-entity-Compra-7a3e4342-9ca5-5899-a3ae-7989b92da001-attr-3-key" class="er entityLabel"/><rect height="22" width="80.00498962402344" y="90" x="0" class="er attributeBoxEven"/><text transform="translate(5,101)" style="dominant-baseline: middle; font-size: 10.2px;" y="0" x="0" id="text-entity-Compra-7a3e4342-9ca5-5899-a3ae-7989b92da001-attr-4-type" class="er entityLabel">data_compra</text><rect height="22" width="34.06306457519531" y="90" x="80.00498962402344" class="er attributeBoxEven"/><text transform="translate(85.00498962402344,101)" style="dominant-baseline: middle; font-size: 10.2px;" y="0" x="0" id="text-entity-Compra-7a3e4342-9ca5-5899-a3ae-7989b92da001-attr-4-name" class="er entityLabel">TEXT</text><rect height="22" width="22.68768310546875" y="90" x="114.06805419921875" class="er attributeBoxEven"/><text transform="translate(119.06805419921875,101)" style="dominant-baseline: middle; font-size: 10.2px;" y="0" x="0" id="text-entity-Compra-7a3e4342-9ca5-5899-a3ae-7989b92da001-attr-4-key" class="er entityLabel"/></g><g transform="translate(133.54290008544922,342 )" id="entity-BancaHasProduto-f041df0e-7fec-55e3-b51e-4e6e4f6f9578"><rect height="68" width="135.73046875" y="0" x="0" class="er entityBox"/><text transform="translate(67.865234375,12)" style="dominant-baseline: middle; text-anchor: middle; font-size: 12px;" y="0" x="0" id="text-entity-BancaHasProduto-f041df0e-7fec-55e3-b51e-4e6e4f6f9578" class="er entityLabel">Banca_Has_Produto</text><rect height="22" width="66.42775980631511" y="24" x="0" class="er attributeBoxOdd"/><text transform="translate(5,35)" style="dominant-baseline: middle; font-size: 10.2px;" y="0" x="0" id="text-entity-BancaHasProduto-f041df0e-7fec-55e3-b51e-4e6e4f6f9578-attr-1-type" class="er entityLabel">cnpj</text><rect height="22" width="40.33904520670573" y="24" x="66.42775980631511" class="er attributeBoxOdd"/><text transform="translate(71.42775980631511,35)" style="dominant-baseline: middle; font-size: 10.2px;" y="0" x="0" id="text-entity-BancaHasProduto-f041df0e-7fec-55e3-b51e-4e6e4f6f9578-attr-1-name" class="er entityLabel">TEXT</text><rect height="22" width="28.963663736979168" y="24" x="106.76680501302084" class="er attributeBoxOdd"/><text transform="translate(111.76680501302084,35)" style="dominant-baseline: middle; font-size: 10.2px;" y="0" x="0" id="text-entity-BancaHasProduto-f041df0e-7fec-55e3-b51e-4e6e4f6f9578-attr-1-key" class="er entityLabel">PK</text><rect height="22" width="66.42775980631511" y="46" x="0" class="er attributeBoxEven"/><text transform="translate(5,57)" style="dominant-baseline: middle; font-size: 10.2px;" y="0" x="0" id="text-entity-BancaHasProduto-f041df0e-7fec-55e3-b51e-4e6e4f6f9578-attr-2-type" class="er entityLabel">produto_id</text><rect height="22" width="40.33904520670573" y="46" x="66.42775980631511" class="er attributeBoxEven"/><text transform="translate(71.42775980631511,57)" style="dominant-baseline: middle; font-size: 10.2px;" y="0" x="0" id="text-entity-BancaHasProduto-f041df0e-7fec-55e3-b51e-4e6e4f6f9578-attr-2-name" class="er entityLabel">TEXT</text><rect height="22" width="28.963663736979168" y="46" x="106.76680501302084" class="er attributeBoxEven"/><text transform="translate(111.76680501302084,57)" style="dominant-baseline: middle; font-size: 10.2px;" y="0" x="0" id="text-entity-BancaHasProduto-f041df0e-7fec-55e3-b51e-4e6e4f6f9578-attr-2-key" class="er entityLabel">PK</text></g><g transform="translate(449.8548698425293,298 )" id="entity-CasodePessoasDesaparecidas-fcd264d1-6d81-5be3-ae5c-e4d89ef9d2e5"><rect height="156" width="203.498046875" y="0" x="0" class="er entityBox"/><text transform="translate(101.7490234375,12)" style="dominant-baseline: middle; text-anchor: middle; font-size: 12px;" y="0" x="0" id="text-entity-CasodePessoasDesaparecidas-fcd264d1-6d81-5be3-ae5c-e4d89ef9d2e5" class="er entityLabel">Caso_de_Pessoas_Desaparecidas</text><rect height="22" width="125.38428243001302" y="24" x="0" class="er attributeBoxOdd"/><text transform="translate(5,35)" style="dominant-baseline: middle; font-size: 10.2px;" y="0" x="0" id="text-entity-CasodePessoasDesaparecidas-fcd264d1-6d81-5be3-ae5c-e4d89ef9d2e5-attr-1-type" class="er entityLabel">caso_id</text><rect height="22" width="44.74457295735677" y="24" x="125.38428243001302" class="er attributeBoxOdd"/><text transform="translate(130.384282430013,35)" style="dominant-baseline: middle; font-size: 10.2px;" y="0" x="0" id="text-entity-CasodePessoasDesaparecidas-fcd264d1-6d81-5be3-ae5c-e4d89ef9d2e5-attr-1-name" class="er entityLabel">TEXT</text><rect height="22" width="33.36919148763021" y="24" x="170.12885538736978" class="er attributeBoxOdd"/><text transform="translate(175.12885538736978,35)" style="dominant-baseline: middle; font-size: 10.2px;" y="0" x="0" id="text-entity-CasodePessoasDesaparecidas-fcd264d1-6d81-5be3-ae5c-e4d89ef9d2e5-attr-1-key" class="er entityLabel">PK</text><rect height="22" width="125.38428243001302" y="46" x="0" class="er attributeBoxEven"/><text transform="translate(5,57)" style="dominant-baseline: middle; font-size: 10.2px;" y="0" x="0" id="text-entity-CasodePessoasDesaparecidas-fcd264d1-6d81-5be3-ae5c-e4d89ef9d2e5-attr-2-type" class="er entityLabel">policial_id</text><rect height="22" width="44.74457295735677" y="46" x="125.38428243001302" class="er attributeBoxEven"/><text transform="translate(130.384282430013,57)" style="dominant-baseline: middle; font-size: 10.2px;" y="0" x="0" id="text-entity-CasodePessoasDesaparecidas-fcd264d1-6d81-5be3-ae5c-e4d89ef9d2e5-attr-2-name" class="er entityLabel">TEXT</text><rect height="22" width="33.36919148763021" y="46" x="170.12885538736978" class="er attributeBoxEven"/><text transform="translate(175.12885538736978,57)" style="dominant-baseline: middle; font-size: 10.2px;" y="0" x="0" id="text-entity-CasodePessoasDesaparecidas-fcd264d1-6d81-5be3-ae5c-e4d89ef9d2e5-attr-2-key" class="er entityLabel"/><rect height="22" width="125.38428243001302" y="68" x="0" class="er attributeBoxOdd"/><text transform="translate(5,79)" style="dominant-baseline: middle; font-size: 10.2px;" y="0" x="0" id="text-entity-CasodePessoasDesaparecidas-fcd264d1-6d81-5be3-ae5c-e4d89ef9d2e5-attr-3-type" class="er entityLabel">cpf_desaparecido</text><rect height="22" width="44.74457295735677" y="68" x="125.38428243001302" class="er attributeBoxOdd"/><text transform="translate(130.384282430013,79)" style="dominant-baseline: middle; font-size: 10.2px;" y="0" x="0" id="text-entity-CasodePessoasDesaparecidas-fcd264d1-6d81-5be3-ae5c-e4d89ef9d2e5-attr-3-name" class="er entityLabel">TEXT</text><rect height="22" width="33.36919148763021" y="68" x="170.12885538736978" class="er attributeBoxOdd"/><text transform="translate(175.12885538736978,79)" style="dominant-baseline: middle; font-size: 10.2px;" y="0" x="0" id="text-entity-CasodePessoasDesaparecidas-fcd264d1-6d81-5be3-ae5c-e4d89ef9d2e5-attr-3-key" class="er entityLabel"/><rect height="22" width="125.38428243001302" y="90" x="0" class="er attributeBoxEven"/><text transform="translate(5,101)" style="dominant-baseline: middle; font-size: 10.2px;" y="0" x="0" id="text-entity-CasodePessoasDesaparecidas-fcd264d1-6d81-5be3-ae5c-e4d89ef9d2e5-attr-4-type" class="er entityLabel">data_desaparecimento</text><rect height="22" width="44.74457295735677" y="90" x="125.38428243001302" class="er attributeBoxEven"/><text transform="translate(130.384282430013,101)" style="dominant-baseline: middle; font-size: 10.2px;" y="0" x="0" id="text-entity-CasodePessoasDesaparecidas-fcd264d1-6d81-5be3-ae5c-e4d89ef9d2e5-attr-4-name" class="er entityLabel">TEXT</text><rect height="22" width="33.36919148763021" y="90" x="170.12885538736978" class="er attributeBoxEven"/><text transform="translate(175.12885538736978,101)" style="dominant-baseline: middle; font-size: 10.2px;" y="0" x="0" id="text-entity-CasodePessoasDesaparecidas-fcd264d1-6d81-5be3-ae5c-e4d89ef9d2e5-attr-4-key" class="er entityLabel"/><rect height="22" width="125.38428243001302" y="112" x="0" class="er attributeBoxOdd"/><text transform="translate(5,123)" style="dominant-baseline: middle; font-size: 10.2px;" y="0" x="0" id="text-entity-CasodePessoasDesaparecidas-fcd264d1-6d81-5be3-ae5c-e4d89ef9d2e5-attr-5-type" class="er entityLabel">ultima_regiao</text><rect height="22" width="44.74457295735677" y="112" x="125.38428243001302" class="er attributeBoxOdd"/><text transform="translate(130.384282430013,123)" style="dominant-baseline: middle; font-size: 10.2px;" y="0" x="0" id="text-entity-CasodePessoasDesaparecidas-fcd264d1-6d81-5be3-ae5c-e4d89ef9d2e5-attr-5-name" class="er entityLabel">TEXT</text><rect height="22" width="33.36919148763021" y="112" x="170.12885538736978" class="er attributeBoxOdd"/><text transform="translate(175.12885538736978,123)" style="dominant-baseline: middle; font-size: 10.2px;" y="0" x="0" id="text-entity-CasodePessoasDesaparecidas-fcd264d1-6d81-5be3-ae5c-e4d89ef9d2e5-attr-5-key" class="er entityLabel"/><rect height="22" width="125.38428243001302" y="134" x="0" class="er attributeBoxEven"/><text transform="translate(5,145)" style="dominant-baseline: middle; font-size: 10.2px;" y="0" x="0" id="text-entity-CasodePessoasDesaparecidas-fcd264d1-6d81-5be3-ae5c-e4d89ef9d2e5-attr-6-type" class="er entityLabel">descricao</text><rect height="22" width="44.74457295735677" y="134" x="125.38428243001302" class="er attributeBoxEven"/><text transform="translate(130.384282430013,145)" style="dominant-baseline: middle; font-size: 10.2px;" y="0" x="0" id="text-entity-CasodePessoasDesaparecidas-fcd264d1-6d81-5be3-ae5c-e4d89ef9d2e5-attr-6-name" class="er entityLabel">TEXT</text><rect height="22" width="33.36919148763021" y="134" x="170.12885538736978" class="er attributeBoxEven"/><text transform="translate(175.12885538736978,145)" style="dominant-baseline: middle; font-size: 10.2px;" y="0" x="0" id="text-entity-CasodePessoasDesaparecidas-fcd264d1-6d81-5be3-ae5c-e4d89ef9d2e5-attr-6-key" class="er entityLabel"/></g><rect height="0" width="0" y="259" x="821.7310180664062" class="er relationshipLabelBox"/><text style="text-anchor: middle; dominant-baseline: middle; font-size: 12px;" y="259" x="821.7310180664062" id="rel1" class="er relationshipLabel"/><rect height="0" width="0" y="257.8118591308594" x="105.65544128417969" class="er relationshipLabelBox"/><text style="text-anchor: middle; dominant-baseline: middle; font-size: 12px;" y="257.8118591308594" x="105.65544128417969" id="rel2" class="er relationshipLabel"/><rect height="0" width="0" y="257.8117370605469" x="297.1606140136719" class="er relationshipLabelBox"/><text style="text-anchor: middle; dominant-baseline: middle; font-size: 12px;" y="257.8117370605469" x="297.1606140136719" id="rel3" class="er relationshipLabel"/><rect height="0" width="0" y="195.74649047851562" x="583.5386962890625" class="er relationshipLabelBox"/><text style="text-anchor: middle; dominant-baseline: middle; font-size: 12px;" y="195.74649047851562" x="583.5386962890625" id="rel4" class="er relationshipLabel"/><rect height="0" width="0" y="231.62152099609375" x="566.3629150390625" class="er relationshipLabelBox"/><text style="text-anchor: middle; dominant-baseline: middle; font-size: 12px;" y="231.62152099609375" x="566.3629150390625" id="rel5" class="er relationshipLabel"/></svg>